<svg width="256" height="256" viewBox="0 0 256 256" fill="none" xmlns="http://www.w3.org/2000/svg">
<g clip-path="url(#clip0_589_944)">
<rect width="256" height="256" fill="white"/>
<circle cx="129" cy="129" r="129" fill="url(#paint0_linear_589_944)" fill-opacity="0.9"/>
<path d="M64.5052 157.2V123.36L52.3034 148H45.1259L32.924 123.36V157.2H19.845V100.4H34.0406L48.7146 130.08L63.4685 100.4H77.5843V157.2H64.5052Z" fill="white"/>
<path d="M106.658 158C101.873 158 97.806 156.987 94.4565 154.96C91.1602 152.933 88.6347 150.267 86.8802 146.96C85.1257 143.653 84.2485 140.08 84.2485 136.24C84.2485 132.347 85.1257 128.747 86.8802 125.44C88.6347 122.133 91.1868 119.467 94.5363 117.44C97.8858 115.413 101.926 114.4 106.658 114.4C111.39 114.4 115.431 115.413 118.78 117.44C122.13 119.467 124.682 122.133 126.436 125.44C128.191 128.747 129.068 132.347 129.068 136.24C129.068 140.08 128.191 143.653 126.436 146.96C124.682 150.267 122.13 152.933 118.78 154.96C115.431 156.987 111.39 158 106.658 158ZM97.3275 136.24C97.3275 139.493 98.2048 142.133 99.9593 144.16C101.767 146.187 104 147.2 106.658 147.2C109.264 147.2 111.443 146.187 113.198 144.16C115.006 142.133 115.909 139.493 115.909 136.24C115.909 132.987 115.006 130.347 113.198 128.32C111.443 126.293 109.264 125.28 106.658 125.28C104 125.28 101.767 126.293 99.9593 128.32C98.2048 130.347 97.3275 132.987 97.3275 136.24Z" fill="white"/>
<path d="M160.438 157.6C156.717 157.6 153.208 156.907 149.911 155.52C146.668 154.08 143.77 152.08 141.218 149.52C138.719 146.907 136.752 143.84 135.317 140.32C133.934 136.747 133.243 132.773 133.243 128.4C133.243 124.453 133.934 120.773 135.317 117.36C136.752 113.947 138.746 110.933 141.298 108.32C143.903 105.707 146.907 103.68 150.31 102.24C153.766 100.747 157.487 100 161.475 100C166.685 100 171.258 101.12 175.192 103.36C179.18 105.6 182.157 108.613 184.124 112.4L174.395 119.76C173.119 117.253 171.258 115.28 168.812 113.84C166.366 112.4 163.761 111.68 160.996 111.68C158.125 111.68 155.6 112.453 153.42 114C151.24 115.493 149.539 117.547 148.316 120.16C147.093 122.773 146.482 125.68 146.482 128.88C146.482 132.133 147.12 135.067 148.396 137.68C149.672 140.24 151.426 142.267 153.659 143.76C155.946 145.2 158.577 145.92 161.555 145.92C166.659 145.92 171.258 143.573 175.352 138.88V137.04H164.346V127.52H186.198V157.2H175.352V151.6C171.045 155.6 166.074 157.6 160.438 157.6Z" fill="white"/>
<path d="M213.745 158C208.96 158 204.893 156.987 201.543 154.96C198.247 152.933 195.722 150.267 193.967 146.96C192.213 143.653 191.335 140.08 191.335 136.24C191.335 132.347 192.213 128.747 193.967 125.44C195.722 122.133 198.274 119.467 201.623 117.44C204.973 115.413 209.013 114.4 213.745 114.4C218.477 114.4 222.518 115.413 225.867 117.44C229.217 119.467 231.769 122.133 233.523 125.44C235.278 128.747 236.155 132.347 236.155 136.24C236.155 140.08 235.278 143.653 233.523 146.96C231.769 150.267 229.217 152.933 225.867 154.96C222.518 156.987 218.477 158 213.745 158ZM204.414 136.24C204.414 139.493 205.292 142.133 207.046 144.16C208.854 146.187 211.087 147.2 213.745 147.2C216.35 147.2 218.53 146.187 220.285 144.16C222.092 142.133 222.996 139.493 222.996 136.24C222.996 132.987 222.092 130.347 220.285 128.32C218.53 126.293 216.35 125.28 213.745 125.28C211.087 125.28 208.854 126.293 207.046 128.32C205.292 130.347 204.414 132.987 204.414 136.24Z" fill="white"/>
</g>
<defs>
<linearGradient id="paint0_linear_589_944" x1="129" y1="258" x2="129" y2="-1.57042e-06" gradientUnits="userSpaceOnUse">
<stop stop-color="#EDD789"/>
<stop offset="1" stop-color="#E98283"/>
</linearGradient>
<clipPath id="clip0_589_944">
<rect width="256" height="256" fill="white"/>
</clipPath>
</defs>
</svg>
