<svg width="20" height="20" viewBox="0 0 20 20" fill="none" xmlns="http://www.w3.org/2000/svg">
<path d="M7.74998 15C6.31521 15 4.91271 14.5743 3.72002 13.7768C2.52733 12.9792 1.5981 11.8457 1.04996 10.5198C0.501814 9.19389 0.359413 7.73513 0.64078 6.32823C0.922148 4.92132 1.61463 3.62953 2.63056 2.6164C3.6465 1.60327 4.94019 0.91436 6.34787 0.63688C7.75555 0.3594 9.21391 0.505831 10.5383 1.05763C11.8627 1.60944 12.9936 2.5418 13.7879 3.73668C14.5821 4.93157 15.0039 6.33524 15 7.77C14.992 9.68854 14.225 11.5259 12.8665 12.8807C11.508 14.2354 9.66853 14.9974 7.74998 15V15ZM7.74998 1.5C6.5147 1.50001 5.30712 1.86607 4.27975 2.55195C3.25238 3.23782 2.4513 4.21276 1.97767 5.35364C1.50404 6.49451 1.3791 7.75015 1.61864 8.96198C1.85819 10.1738 2.45146 11.2875 3.32354 12.1624C4.19561 13.0372 5.30739 13.6341 6.51845 13.8775C7.72951 14.1209 8.98554 14 10.1279 13.53C11.2703 13.06 12.2478 12.262 12.937 11.2369C13.6261 10.2117 13.996 9.00528 14 7.77C14 6.1124 13.3415 4.52269 12.1694 3.35059C10.9973 2.17848 9.40758 1.52 7.74998 1.52V1.5Z" fill="white"/>
<path d="M19 19.5199C18.9344 19.5207 18.8694 19.5078 18.8091 19.4819C18.7488 19.4561 18.6946 19.4179 18.65 19.3699L12.17 12.8899C12.0772 12.7971 12.025 12.6712 12.025 12.5399C12.025 12.4086 12.0772 12.2827 12.17 12.1899C12.2628 12.0971 12.3887 12.0449 12.52 12.0449C12.6513 12.0449 12.7772 12.0971 12.87 12.1899L19.35 18.6699C19.3978 18.7148 19.436 18.769 19.462 18.8292C19.4881 18.8894 19.5015 18.9543 19.5015 19.0199C19.5015 19.0855 19.4881 19.1504 19.462 19.2106C19.436 19.2708 19.3978 19.325 19.35 19.3699C19.3054 19.4179 19.2511 19.4561 19.1909 19.4819C19.1306 19.5078 19.0656 19.5207 19 19.5199V19.5199Z" fill="white"/>
</svg>
