<svg width="22" height="16" viewBox="0 0 22 16" fill="none" xmlns="http://www.w3.org/2000/svg">
<path d="M15.39 11.3101H11.2C11.0674 11.3101 10.9402 11.2574 10.8465 11.1636C10.7527 11.0698 10.7 10.9427 10.7 10.8101C10.7 10.6775 10.7527 10.5503 10.8465 10.4565C10.9402 10.3627 11.0674 10.3101 11.2 10.3101H15.39C15.5226 10.3101 15.6498 10.3627 15.7436 10.4565C15.8373 10.5503 15.89 10.6775 15.89 10.8101C15.89 10.9427 15.8373 11.0698 15.7436 11.1636C15.6498 11.2574 15.5226 11.3101 15.39 11.3101Z" fill="white"/>
<path d="M18.21 11.0001C18.1508 11.0142 18.0892 11.0142 18.03 11.0001C17.9684 10.9779 17.9118 10.9436 17.8637 10.8992C17.8156 10.8547 17.7768 10.8011 17.7498 10.7414C17.7228 10.6817 17.708 10.6172 17.7063 10.5518C17.7046 10.4863 17.7161 10.4211 17.74 10.3601L20.12 4.00014C20.1671 3.87735 20.2607 3.77805 20.3805 3.72377C20.5003 3.66949 20.6366 3.66459 20.76 3.71014C20.8837 3.75945 20.9838 3.85436 21.0397 3.9753C21.0955 4.09624 21.1027 4.23399 21.06 4.36014L18.68 10.6901C18.6397 10.7815 18.5739 10.8593 18.4906 10.9143C18.4072 10.9692 18.3098 10.999 18.21 11.0001V11.0001Z" fill="white"/>
<path d="M8.00001 11.1901C7.89568 11.1908 7.79383 11.1582 7.7093 11.0971C7.62476 11.0359 7.56195 10.9494 7.53001 10.8501L4.39001 1.31006H1.39001C1.25741 1.31006 1.13023 1.25738 1.03646 1.16361C0.942693 1.06984 0.890015 0.942667 0.890015 0.810059C0.892575 0.678252 0.946075 0.552557 1.03929 0.459338C1.13251 0.366119 1.25821 0.312619 1.39001 0.310059H4.75001C4.85362 0.312268 4.9541 0.345988 5.03806 0.406728C5.12203 0.467468 5.18549 0.552346 5.22001 0.650059L8.51002 10.5301C8.53193 10.5917 8.54127 10.6572 8.53748 10.7225C8.53369 10.7878 8.51685 10.8518 8.48796 10.9105C8.45906 10.9692 8.4187 11.0215 8.36924 11.0644C8.31979 11.1073 8.26225 11.1398 8.20001 11.1601C8.13649 11.1851 8.06809 11.1954 8.00001 11.1901V11.1901Z" fill="white"/>
<path d="M9.54004 15.6899C8.9467 15.6899 8.36668 15.514 7.87333 15.1844C7.37998 14.8547 6.99546 14.3862 6.7684 13.838C6.54134 13.2898 6.48193 12.6866 6.59768 12.1047C6.71344 11.5227 6.99916 10.9882 7.41872 10.5686C7.83828 10.1491 8.37283 9.86334 8.95477 9.74759C9.53671 9.63183 10.1399 9.69124 10.6881 9.9183C11.2363 10.1454 11.7048 10.5299 12.0344 11.0232C12.3641 11.5166 12.54 12.0966 12.54 12.6899C12.54 13.4856 12.224 14.2487 11.6614 14.8113C11.0988 15.3739 10.3357 15.6899 9.54004 15.6899V15.6899ZM9.54004 10.6899C9.14448 10.6899 8.7578 10.8072 8.4289 11.027C8.1 11.2468 7.84366 11.5591 7.69228 11.9246C7.54091 12.29 7.5013 12.6922 7.57847 13.0801C7.65564 13.4681 7.84612 13.8245 8.12583 14.1042C8.40553 14.3839 8.7619 14.5743 9.14986 14.6515C9.53782 14.7287 9.93995 14.6891 10.3054 14.5377C10.6709 14.3863 10.9832 14.13 11.203 13.8011C11.4227 13.4722 11.54 13.0855 11.54 12.6899C11.54 12.1595 11.3293 11.6508 10.9543 11.2757C10.5792 10.9007 10.0705 10.6899 9.54004 10.6899Z" fill="white"/>
<path d="M17.05 15.6899C16.4566 15.6899 15.8766 15.514 15.3833 15.1844C14.8899 14.8547 14.5054 14.3862 14.2784 13.838C14.0513 13.2898 13.9919 12.6866 14.1076 12.1047C14.2234 11.5227 14.5091 10.9882 14.9287 10.5686C15.3482 10.1491 15.8828 9.86334 16.4647 9.74759C17.0467 9.63183 17.6499 9.69124 18.198 9.9183C18.7462 10.1454 19.2148 10.5299 19.5444 11.0232C19.874 11.5166 20.05 12.0966 20.05 12.6899C20.05 13.4856 19.7339 14.2487 19.1713 14.8113C18.6087 15.3739 17.8456 15.6899 17.05 15.6899V15.6899ZM17.05 10.6899C16.6544 10.6899 16.2677 10.8072 15.9388 11.027C15.61 11.2468 15.3536 11.5591 15.2022 11.9246C15.0509 12.29 15.0112 12.6922 15.0884 13.0801C15.1656 13.4681 15.3561 13.8245 15.6358 14.1042C15.9155 14.3839 16.2718 14.5743 16.6598 14.6515C17.0478 14.7287 17.4499 14.6891 17.8154 14.5377C18.1808 14.3863 18.4932 14.13 18.7129 13.8011C18.9327 13.4722 19.05 13.0855 19.05 12.6899C19.05 12.1595 18.8393 11.6508 18.4642 11.2757C18.0891 10.9007 17.5804 10.6899 17.05 10.6899Z" fill="white"/>
</svg>
