<svg width="32" height="38" viewBox="0 0 32 38" fill="none" xmlns="http://www.w3.org/2000/svg">
<path d="M16.4167 19C14.6037 19 12.8314 18.4623 11.3239 17.4551C9.81649 16.4479 8.64158 15.0162 7.94778 13.3412C7.25397 11.6662 7.07244 9.82313 7.42614 8.04497C7.77984 6.26681 8.65288 4.63347 9.93486 3.35148C11.2168 2.0695 12.8502 1.19646 14.6283 0.842765C16.4065 0.489067 18.2496 0.670598 19.9246 1.3644C21.5996 2.0582 23.0312 3.23312 24.0385 4.74057C25.0457 6.24802 25.5833 8.0203 25.5833 9.8333C25.5789 12.2631 24.6117 14.5921 22.8936 16.3102C21.1755 18.0284 18.8465 18.9956 16.4167 19ZM16.4167 2.3333C14.9333 2.3333 13.4833 2.77316 12.2499 3.59727C11.0165 4.42139 10.0552 5.59272 9.48757 6.96317C8.91992 8.33362 8.77139 9.84162 9.06078 11.2965C9.35017 12.7513 10.0645 14.0877 11.1134 15.1366C12.1623 16.1855 13.4986 16.8998 14.9535 17.1892C16.4083 17.4786 17.9164 17.3301 19.2868 16.7624C20.6572 16.1947 21.8286 15.2334 22.6527 14.0001C23.4768 12.7667 23.9167 11.3167 23.9167 9.8333C23.9123 7.84553 23.1207 5.94043 21.7151 4.53486C20.3095 3.12929 18.4044 2.3377 16.4167 2.3333Z" fill="white"/>
<path d="M1.41671 32.3333C1.19569 32.3333 0.983732 32.2455 0.827452 32.0892C0.671172 31.9329 0.583374 31.7209 0.583374 31.4999C0.587785 27.744 2.08176 24.1433 4.73757 21.4874C7.39338 18.8316 10.9942 17.3377 14.75 17.3333H18.0834C18.3044 17.3333 18.5164 17.421 18.6726 17.5773C18.8289 17.7336 18.9167 17.9456 18.9167 18.1666C18.9167 18.3876 18.8289 18.5996 18.6726 18.7558C18.5164 18.9121 18.3044 18.9999 18.0834 18.9999H14.75C11.4348 18.9999 8.25541 20.3169 5.91121 22.6611C3.567 25.0053 2.25004 28.1847 2.25004 31.4999C2.25004 31.7209 2.16224 31.9329 2.00596 32.0892C1.84968 32.2455 1.63772 32.3333 1.41671 32.3333Z" fill="white"/>
<path d="M23.9167 37.3333C23.6957 37.3333 23.4837 37.2455 23.3275 37.0892C23.1712 36.9329 23.0834 36.7209 23.0834 36.4999V23.1666C23.0834 22.9456 23.1712 22.7336 23.3275 22.5773C23.4837 22.421 23.6957 22.3333 23.9167 22.3333C24.1377 22.3333 24.3497 22.421 24.506 22.5773C24.6622 22.7336 24.75 22.9456 24.75 23.1666V36.4999C24.75 36.7209 24.6622 36.9329 24.506 37.0892C24.3497 37.2455 24.1377 37.3333 23.9167 37.3333Z" fill="white"/>
<path d="M30.5834 30.6667H17.2501C17.0291 30.6667 16.8171 30.5789 16.6608 30.4226C16.5045 30.2663 16.4167 30.0543 16.4167 29.8333C16.4167 29.6123 16.5045 29.4004 16.6608 29.2441C16.8171 29.0878 17.0291 29 17.2501 29H30.5834C30.8044 29 31.0164 29.0878 31.1727 29.2441C31.329 29.4004 31.4167 29.6123 31.4167 29.8333C31.4167 30.0543 31.329 30.2663 31.1727 30.4226C31.0164 30.5789 30.8044 30.6667 30.5834 30.6667Z" fill="white"/>
</svg>
