<svg width="42" height="42" viewBox="0 0 42 42" fill="none" xmlns="http://www.w3.org/2000/svg">
<path d="M21.0001 26.3724C19.9375 26.3724 18.8988 26.0574 18.0153 25.467C17.1318 24.8767 16.4432 24.0376 16.0365 23.0559C15.6299 22.0742 15.5235 20.994 15.7308 19.9518C15.9381 18.9097 16.4498 17.9524 17.2011 17.201C17.9525 16.4497 18.9098 15.938 19.9519 15.7307C20.9941 15.5234 22.0743 15.6298 23.056 16.0364C24.0377 16.443 24.8768 17.1316 25.4671 18.0151C26.0575 18.8986 26.3726 19.9374 26.3726 20.9999C26.368 22.4234 25.8004 23.7872 24.7939 24.7938C23.7874 25.8003 22.4235 26.3678 21.0001 26.3724ZM21.0001 17.3774C20.2836 17.3774 19.5832 17.5899 18.9875 17.9879C18.3918 18.386 17.9275 18.9517 17.6533 19.6137C17.3791 20.2756 17.3074 21.004 17.4472 21.7067C17.5869 22.4094 17.932 23.0548 18.4386 23.5614C18.9452 24.0681 19.5907 24.4131 20.2934 24.5528C20.996 24.6926 21.7244 24.6209 22.3863 24.3467C23.0483 24.0725 23.614 23.6082 24.0121 23.0125C24.4101 22.4168 24.6226 21.7164 24.6226 20.9999C24.6226 20.0392 24.2409 19.1178 23.5616 18.4385C22.8822 17.7591 21.9608 17.3774 21.0001 17.3774Z" fill="#95E1D3"/>
<path d="M21 32.3749C18.7502 32.3749 16.551 31.7077 14.6804 30.4578C12.8098 29.2079 11.3518 27.4314 10.4909 25.3529C9.62993 23.2744 9.40467 20.9873 9.84357 18.7807C10.2825 16.5742 11.3658 14.5474 12.9567 12.9565C14.5475 11.3657 16.5743 10.2824 18.7809 9.84345C20.9874 9.40454 23.2745 9.62981 25.353 10.4908C27.4315 11.3517 29.2081 12.8097 30.458 14.6803C31.7079 16.5509 32.375 18.7501 32.375 20.9999C32.375 24.0167 31.1766 26.91 29.0433 29.0432C26.9101 31.1764 24.0168 32.3749 21 32.3749ZM21 11.3749C19.0964 11.3749 17.2355 11.9394 15.6526 12.997C14.0698 14.0546 12.8362 15.5578 12.1077 17.3166C11.3792 19.0753 11.1886 21.0106 11.5599 22.8776C11.9313 24.7447 12.848 26.4597 14.1941 27.8058C15.5402 29.1519 17.2552 30.0686 19.1223 30.4399C20.9893 30.8113 22.9246 30.6207 24.6833 29.8922C26.4421 29.1637 27.9453 27.9301 29.0029 26.3472C30.0605 24.7644 30.625 22.9035 30.625 20.9999C30.6204 18.4486 29.6048 16.0031 27.8008 14.1991C25.9968 12.3951 23.5513 11.3795 21 11.3749Z" fill="#95E1D3"/>
<path d="M21.0001 38.3774C17.5631 38.3774 14.2034 37.3583 11.3456 35.4488C8.48793 33.5393 6.26061 30.8253 4.94535 27.65C3.63009 24.4747 3.28596 20.9807 3.95647 17.6098C4.62698 14.2389 6.28203 11.1425 8.71232 8.7122C11.1426 6.28191 14.239 4.62686 17.6099 3.95635C20.9808 3.28583 24.4748 3.62997 27.6501 4.94523C30.8255 6.26049 33.5395 8.48781 35.4489 11.3455C37.3584 14.2032 38.3776 17.563 38.3776 20.9999C38.3729 25.6073 36.5406 30.0247 33.2827 33.2826C30.0248 36.5405 25.6074 38.3728 21.0001 38.3774ZM21.0001 5.37244C17.9092 5.37244 14.8878 6.28898 12.3179 8.00615C9.74796 9.72332 7.74495 12.164 6.56214 15.0196C5.37933 17.8751 5.06985 21.0173 5.67284 24.0487C6.27583 27.0802 7.76421 29.8647 9.94975 32.0503C12.1353 34.2358 14.9199 35.7242 17.9513 36.3272C20.9827 36.9302 24.1249 36.6207 26.9805 35.4379C29.836 34.2551 32.2767 32.252 33.9939 29.6821C35.711 27.1122 36.6276 24.0908 36.6276 20.9999C36.6276 18.9477 36.2233 16.9156 35.438 15.0196C34.6526 13.1235 33.5015 11.4008 32.0504 9.94963C30.5992 8.49849 28.8765 7.34737 26.9805 6.56202C25.0844 5.77666 23.0523 5.37244 21.0001 5.37244Z" fill="#95E1D3"/>
</svg>
