<svg width="270" height="100" viewBox="0 0 270 100" fill="none" xmlns="http://www.w3.org/2000/svg">
<path d="M29.1023 73.4759V51.3048L21.1512 67.4483H16.474L8.52283 51.3048V73.4759H0V36.2621H9.25038L18.8126 55.7076L28.4267 36.2621H37.6252V73.4759H29.1023Z" fill="#C6CBCD"/>
<path d="M56.5709 74C53.4528 74 50.8024 73.3361 48.6197 72.0083C46.4717 70.6805 44.826 68.9333 43.6827 66.7669C42.5394 64.6005 41.9678 62.2593 41.9678 59.7435C41.9678 57.1926 42.5394 54.834 43.6827 52.6676C44.826 50.5012 46.489 48.754 48.6717 47.4262C50.8544 46.0984 53.4874 45.4345 56.5709 45.4345C59.6544 45.4345 62.2874 46.0984 64.4701 47.4262C66.6528 48.754 68.3158 50.5012 69.4591 52.6676C70.6024 54.834 71.174 57.1926 71.174 59.7435C71.174 62.2593 70.6024 64.6005 69.4591 66.7669C68.3158 68.9333 66.6528 70.6805 64.4701 72.0083C62.2874 73.3361 59.6544 74 56.5709 74ZM50.4906 59.7435C50.4906 61.8749 51.0622 63.6046 52.2056 64.9324C53.3835 66.2602 54.8386 66.9241 56.5709 66.9241C58.2685 66.9241 59.689 66.2602 60.8323 64.9324C62.0103 63.6046 62.5992 61.8749 62.5992 59.7435C62.5992 57.612 62.0103 55.8823 60.8323 54.5545C59.689 53.2267 58.2685 52.5628 56.5709 52.5628C54.8386 52.5628 53.3835 53.2267 52.2056 54.5545C51.0622 55.8823 50.4906 57.612 50.4906 59.7435Z" fill="#C6CBCD"/>
<path d="M91.6159 73.7379C89.1907 73.7379 86.9041 73.2837 84.7561 72.3752C82.6427 71.4317 80.7545 70.1214 79.0915 68.4441C77.4632 66.732 76.1813 64.7228 75.2458 62.4166C74.3451 60.0754 73.8947 57.4722 73.8947 54.6069C73.8947 52.0212 74.3451 49.6101 75.2458 47.3738C76.1813 45.1375 77.4805 43.1632 79.1435 41.451C80.8411 39.7389 82.7986 38.411 85.0159 37.4676C87.2679 36.4892 89.6931 36 92.2915 36C95.6868 36 98.6663 36.7338 101.23 38.2014C103.828 39.669 105.769 41.6432 107.051 44.1241L100.71 48.9462C99.8789 47.3039 98.6663 46.011 97.0726 45.0676C95.4789 44.1241 93.7813 43.6524 91.9797 43.6524C90.1088 43.6524 88.4632 44.1591 87.0427 45.1724C85.6222 46.1508 84.5135 47.4961 83.7167 49.2083C82.9199 50.9205 82.5214 52.8248 82.5214 54.9214C82.5214 57.0529 82.9372 58.9747 83.7687 60.6869C84.6002 62.3641 85.7435 63.692 87.1986 64.6703C88.6883 65.6138 90.4033 66.0855 92.3435 66.0855C95.6694 66.0855 98.6663 64.548 101.334 61.4731V60.2676H94.1624V54.0303H108.402V73.4759H101.334V69.8069C98.5277 72.4276 95.2883 73.7379 91.6159 73.7379Z" fill="#C6CBCD"/>
<path d="M126.353 74C123.235 74 120.584 73.3361 118.402 72.0083C116.254 70.6805 114.608 68.9333 113.465 66.7669C112.321 64.6005 111.75 62.2593 111.75 59.7435C111.75 57.1926 112.321 54.834 113.465 52.6676C114.608 50.5012 116.271 48.754 118.454 47.4262C120.636 46.0984 123.269 45.4345 126.353 45.4345C129.436 45.4345 132.069 46.0984 134.252 47.4262C136.435 48.754 138.098 50.5012 139.241 52.6676C140.384 54.834 140.956 57.1926 140.956 59.7435C140.956 62.2593 140.384 64.6005 139.241 66.7669C138.098 68.9333 136.435 70.6805 134.252 72.0083C132.069 73.3361 129.436 74 126.353 74ZM120.272 59.7435C120.272 61.8749 120.844 63.6046 121.987 64.9324C123.165 66.2602 124.62 66.9241 126.353 66.9241C128.05 66.9241 129.471 66.2602 130.614 64.9324C131.792 63.6046 132.381 61.8749 132.381 59.7435C132.381 57.612 131.792 55.8823 130.614 54.5545C129.471 53.2267 128.05 52.5628 126.353 52.5628C124.62 52.5628 123.165 53.2267 121.987 54.5545C120.844 55.8823 120.272 57.612 120.272 59.7435Z" fill="#C6CBCD"/>
</svg>
